<svg width="28" height="28" viewBox="0 0 68 67" fill="none" xmlns="http://www.w3.org/2000/svg">
<path d="M52.0625 66.9958H15.9375C7.14956 66.9958 0 59.9514 0 51.2927V29.2729C0 24.4061 2.34481 19.7385 6.2722 16.7869L24.3347 3.21302C30.0256 -1.0636 37.9744 -1.0636 43.6653 3.21302L49.4062 7.52352V4.18334C49.5465 0.710853 54.5797 0.71347 54.7188 4.18334V12.8084C54.7188 13.8033 54.1462 14.7122 53.2412 15.1538C52.3362 15.5953 51.2555 15.493 50.4524 14.8901L40.4443 7.37578C36.6496 4.5241 31.3501 4.5241 27.5563 7.37513L9.49384 20.949C6.8757 22.9165 5.3125 26.0282 5.3125 29.2729V51.2927C5.3125 57.0652 10.0789 61.7615 15.9375 61.7615H52.0625C57.9211 61.7615 62.6875 57.0652 62.6875 51.2927V29.2729C62.6875 25.9884 61.142 22.8661 58.5532 20.9205C57.3867 20.0439 57.1624 18.4016 58.0521 17.2524C58.9418 16.1031 60.6087 15.882 61.7749 16.7587C65.6729 19.6878 68 24.366 68 29.2729V51.2927C68 59.9514 60.8504 66.9958 52.0625 66.9958ZM28.6875 30.2244C26.8538 30.2244 25.3672 31.6891 25.3672 33.4958C25.5426 37.8364 31.834 37.8332 32.0078 33.4958C32.0078 31.6889 30.5212 30.2244 28.6875 30.2244ZM42.6328 33.4957C42.4574 37.8363 36.166 37.833 35.9922 33.4957C36.1676 29.1551 42.459 29.1585 42.6328 33.4957ZM32.0078 43.9645C31.8324 48.3051 25.541 48.3018 25.3672 43.9645C25.5426 39.6239 31.834 39.6273 32.0078 43.9645ZM42.6328 43.9645C42.4574 48.3051 36.166 48.3018 35.9922 43.9645C36.1676 39.6239 42.459 39.6273 42.6328 43.9645Z" fill="black"/>
</svg>
