<svg width="20" height="24" viewBox="0 0 20 24" fill="none" xmlns="http://www.w3.org/2000/svg">
<path d="M1 9.77778C1 4.92995 4.92995 1 9.77778 1C14.6256 1 18.5556 4.92994 18.5556 9.77777V10.6745C18.5556 11.2059 18.5118 11.7365 18.4246 12.2607L17.7221 16.4875C17.5595 17.4656 17.6831 18.4698 18.0779 19.3793L18.1658 19.5817L19.0831 19.1835L18.1658 19.5817C18.2446 19.7633 18.2931 19.9567 18.3093 20.154C18.3959 21.208 17.5639 22.1111 16.5064 22.1111H3.54901C2.36309 22.1111 1.41553 21.0285 1.56835 19.7259C1.60971 19.3735 1.67763 19.06 1.75532 18.7013C1.80421 18.4756 1.85697 18.2321 1.90943 17.9497C2.03069 17.2969 2.12494 16.5223 1.94801 15.7239L1.20902 12.3892C1.07009 11.7623 1 11.1221 1 10.48V9.77778Z" stroke="#2D3436" stroke-width="2"/>
</svg>
