<svg width="25" height="28" viewBox="0 0 62 68" fill="none" xmlns="http://www.w3.org/2000/svg">
<path d="M45.2773 68H30.0039C26.4796 67.8597 26.4823 62.8266 30.0039 62.6875H45.2773C51.136 62.6875 55.9023 57.9211 55.9023 52.0625V15.9375C55.9023 12.5643 54.3531 9.46568 51.6517 7.43617C50.4788 6.55496 50.2424 4.88989 51.1235 3.71702C52.0046 2.54416 53.6698 2.30748 54.8428 3.18883C58.8924 6.23116 61.2148 10.8779 61.2148 15.9375V52.0625C61.2148 60.8504 54.0653 68 45.2773 68ZM22.0352 65.3438V2.65625C22.0352 1.1892 20.846 0 19.3789 0H16.7227C7.93472 0 0.785156 7.14956 0.785156 15.9375V52.0625C0.785156 60.8504 7.93472 68 16.7227 68H19.3789C20.846 68 22.0352 66.8108 22.0352 65.3438ZM16.7227 62.6875C10.864 62.6875 6.09766 57.9211 6.09766 52.0625V15.9375C6.09766 10.0789 10.864 5.3125 16.7227 5.3125V62.6875ZM41.4032 30.8093C40.2748 30.8093 39.1635 30.3883 38.306 29.5873L36.6445 28.0531L34.983 29.5873C32.1188 32.2875 27.3295 30.2059 27.3477 26.2707V2.65625C27.3477 1.1892 28.5369 0 30.0039 0H43.2852C44.7522 0 45.9414 1.1892 45.9414 2.65625V26.2707C45.9414 28.082 44.8671 29.7169 43.2047 30.436C42.624 30.687 42.0111 30.8093 41.4032 30.8093ZM36.6445 21.7812C37.2912 21.7812 37.9377 22.0162 38.4465 22.4861L40.6289 24.5012V5.3125H32.6602V24.5012L34.8425 22.486C35.3513 22.0162 35.9979 21.7812 36.6445 21.7812Z" fill="black"/>
</svg>
