<svg width="20" height="20" viewBox="0 0 20 20" fill="none" xmlns="http://www.w3.org/2000/svg">
<path d="M10.625 20H4.6875C2.10281 20 0 17.8972 0 15.3125V4.6875C0 2.10281 2.10281 0 4.6875 0H15.3125C17.8972 0 20 2.10281 20 4.6875V6.99219C19.9587 8.02875 18.4784 8.02797 18.4375 6.99219V4.6875C18.4375 2.96438 17.0356 1.5625 15.3125 1.5625H4.6875C2.96438 1.5625 1.5625 2.96438 1.5625 4.6875V15.3125C1.5625 17.0356 2.96438 18.4375 4.6875 18.4375H10.625C11.6616 18.4788 11.6608 19.9591 10.625 20ZM16.4844 5.39062C16.4844 4.95914 16.1346 4.60938 15.7031 4.60938H7.61719C6.58063 4.65063 6.58141 6.13098 7.61719 6.17188H15.7031C16.1346 6.17188 16.4844 5.82211 16.4844 5.39062ZM9.25781 10C9.25781 9.56852 8.90805 9.21875 8.47656 9.21875H7.61719C6.58063 9.26 6.58141 10.7404 7.61719 10.7812H8.47656C8.90805 10.7812 9.25781 10.4315 9.25781 10ZM20 14.6677C20 13.8666 19.5433 13.1492 18.8579 12.7944L18.6273 11.3212C18.465 10.1764 17.829 9.15984 16.8818 8.53141C15.5576 7.63148 13.6263 7.63152 12.3022 8.53141C11.3549 9.15996 10.7189 10.1767 10.5567 11.3217L10.3256 12.8113C8.41535 13.8512 9.14524 16.7758 11.3263 16.7969H17.8924C19.0545 16.7969 20 15.8417 20 14.6677ZM16.018 9.83336C16.5946 10.2159 16.982 10.8397 17.0808 11.5446C17.0814 11.5487 17.082 11.5529 17.0827 11.557L17.385 13.4886C17.4355 13.8115 17.6817 14.0688 18.0019 14.1336C18.6498 14.2845 18.5349 15.2107 17.8924 15.2344H11.3263C10.6911 15.2111 10.5684 14.3024 11.2034 14.1368C11.5151 14.0653 11.7517 13.8111 11.8007 13.4951L12.1015 11.5559C12.1021 11.5521 12.1027 11.5484 12.1032 11.5446C12.202 10.8396 12.5894 10.2159 13.166 9.83332C13.5677 9.56691 14.0874 9.41406 14.592 9.41406C15.0966 9.41406 15.6163 9.56691 16.018 9.83336ZM15.8594 13.125C15.8594 12.6935 15.5096 12.3438 15.0781 12.3438H14.0234C12.9869 12.385 12.9877 13.8654 14.0234 13.9062H15.0781C15.5096 13.9062 15.8594 13.5565 15.8594 13.125ZM14.6497 20C13.6543 20 12.817 19.267 12.702 18.2948C12.6514 17.8664 12.9577 17.4779 13.3861 17.4273C13.8147 17.3766 14.2031 17.6829 14.2537 18.1114C14.3144 18.5434 14.9854 18.5432 15.0457 18.1114C15.0964 17.683 15.4855 17.3766 15.9133 17.4273C16.3418 17.4779 16.6481 17.8663 16.5975 18.2948C16.4826 19.2669 15.6453 20 14.6497 20ZM4.49219 4.45312C3.95285 4.45312 3.51562 4.89035 3.51562 5.42969C3.56723 6.72539 5.41766 6.72441 5.46875 5.42969C5.46875 4.89035 5.03152 4.45312 4.49219 4.45312ZM4.49219 9.02344C3.95285 9.02344 3.51562 9.46066 3.51562 10C3.56723 11.2957 5.41766 11.2947 5.46875 10C5.46875 9.46066 5.03152 9.02344 4.49219 9.02344ZM4.49219 13.6328C3.95285 13.6328 3.51562 14.07 3.51562 14.6094C3.56723 15.9051 5.41766 15.9041 5.46875 14.6094C5.46875 14.07 5.03152 13.6328 4.49219 13.6328Z" fill="#2D3436" fill-opacity="0.9"/>
</svg>
