<svg width="52" height="22" viewBox="0 0 52 22" fill="none" xmlns="http://www.w3.org/2000/svg">
<path d="M34.238 6.802H29.114V10.386C29.3473 10.0593 29.688 9.79333 30.136 9.588C30.584 9.37333 31.0693 9.266 31.592 9.266C32.3573 9.266 32.9827 9.42467 33.468 9.742C33.9533 10.05 34.3033 10.456 34.518 10.96C34.7327 11.4547 34.84 11.9867 34.84 12.556C34.84 13.2093 34.714 13.802 34.462 14.334C34.2193 14.8567 33.8413 15.272 33.328 15.58C32.824 15.888 32.194 16.042 31.438 16.042C30.4767 16.042 29.6973 15.7947 29.1 15.3C28.5027 14.796 28.1387 14.1193 28.008 13.27H28.974C29.0953 13.886 29.3753 14.362 29.814 14.698C30.2527 15.034 30.794 15.202 31.438 15.202C32.25 15.202 32.8613 14.964 33.272 14.488C33.692 14.0027 33.902 13.3633 33.902 12.57C33.902 11.7953 33.692 11.1933 33.272 10.764C32.852 10.3253 32.25 10.106 31.466 10.106C30.9247 10.106 30.4487 10.232 30.038 10.484C29.6273 10.736 29.324 11.0767 29.128 11.506H28.204V5.948H34.238V6.802ZM36.5506 10.89C36.5506 9.28467 36.798 8.03867 37.2926 7.152C37.7873 6.26533 38.674 5.822 39.9526 5.822C41.2313 5.822 42.118 6.26533 42.6126 7.152C43.1073 8.03867 43.3546 9.28467 43.3546 10.89C43.3546 12.5233 43.1073 13.788 42.6126 14.684C42.118 15.58 41.2313 16.028 39.9526 16.028C38.6646 16.028 37.7733 15.58 37.2786 14.684C36.7933 13.788 36.5506 12.5233 36.5506 10.89ZM42.3886 10.89C42.3886 10.022 42.328 9.28933 42.2066 8.692C42.0853 8.09467 41.8473 7.614 41.4926 7.25C41.138 6.886 40.6246 6.704 39.9526 6.704C39.2806 6.704 38.7673 6.886 38.4126 7.25C38.058 7.614 37.82 8.09467 37.6986 8.692C37.5773 9.28933 37.5166 10.022 37.5166 10.89C37.5166 11.786 37.5773 12.5373 37.6986 13.144C37.82 13.7413 38.058 14.222 38.4126 14.586C38.7673 14.95 39.2806 15.132 39.9526 15.132C40.6246 15.132 41.138 14.95 41.4926 14.586C41.8473 14.222 42.0853 13.7413 42.2066 13.144C42.328 12.5373 42.3886 11.786 42.3886 10.89Z" fill="black" fill-opacity="0.6"/>
<g clip-path="url(#clip0)">
<path d="M3.54 5.38354H14.8652C15.0432 5.38354 15.1875 5.23926 15.1875 5.06128C15.1875 4.8833 15.0432 4.73901 14.8652 4.73901H3.54C3.36203 4.73901 3.21774 4.8833 3.21774 5.06128C3.21774 5.23926 3.36203 5.38354 3.54 5.38354Z" fill="black" fill-opacity="0.6"/>
<path d="M3.53918 8.80225H18.4609C18.6389 8.80225 18.7832 8.65796 18.7832 8.47998C18.7832 8.302 18.6389 8.15771 18.4609 8.15771H3.53914C3.36116 8.15771 3.21687 8.302 3.21687 8.47998C3.21687 8.65796 3.3612 8.80225 3.53918 8.80225Z" fill="black" fill-opacity="0.6"/>
<path d="M3.53918 12.2209H18.4609C18.6389 12.2209 18.7832 12.0767 18.7832 11.8987C18.7832 11.7207 18.6389 11.5764 18.4609 11.5764H3.53914C3.36116 11.5764 3.21687 11.7207 3.21687 11.8987C3.21687 12.0767 3.3612 12.2209 3.53918 12.2209Z" fill="black" fill-opacity="0.6"/>
<path d="M0.322266 11.467C0.500242 11.467 0.644531 11.3227 0.644531 11.1447V3.06846C0.644531 1.86667 1.62224 0.888916 2.82408 0.888916H19.1759C20.3777 0.888916 21.3555 1.86667 21.3555 3.06846V4.30738C21.3555 4.48536 21.4998 4.62965 21.6777 4.62965C21.8557 4.62965 22 4.48536 22 4.30738V3.06846C22 1.51128 20.7331 0.244385 19.1759 0.244385H2.82408C1.26685 0.244385 0 1.51128 0 3.06846V11.1447C0 11.3227 0.144289 11.467 0.322266 11.467Z" fill="black" fill-opacity="0.6"/>
<path d="M18.7193 21.7001C18.9751 21.591 19.1403 21.3409 19.1403 21.0628V17.5864C19.1403 17.5668 19.1563 17.5509 19.1759 17.5509C20.7332 17.5509 22 16.284 22 14.7268V5.81519C22 5.63721 21.8557 5.49292 21.6777 5.49292C21.4998 5.49292 21.3555 5.63721 21.3555 5.81519V14.7268C21.3555 15.9286 20.3778 16.9063 19.1759 16.9063C18.8009 16.9063 18.4958 17.2114 18.4958 17.5864V21.0628C18.4958 21.106 18.4453 21.1276 18.4141 21.0977L14.376 17.2248C14.1619 17.0195 13.8806 16.9064 13.5839 16.9064H2.82404C1.62224 16.9064 0.644487 15.9287 0.644487 14.7268V12.6526C0.644487 12.4746 0.500198 12.3303 0.322222 12.3303C0.144245 12.3303 -4.19617e-05 12.4746 -4.19617e-05 12.6526V14.7268C-4.19617e-05 16.284 1.2668 17.5509 2.82404 17.5509H13.5839C13.7135 17.5509 13.8364 17.6003 13.9299 17.69L17.9679 21.5628C18.1693 21.7559 18.4644 21.8088 18.7193 21.7001Z" fill="black" fill-opacity="0.6"/>
</g>
<defs>
<clipPath id="clip0">
<rect width="22" height="22" fill="white" transform="matrix(-1 0 0 1 22 0)"/>
</clipPath>
</defs>
</svg>
