<svg width="22" height="22" viewBox="0 0 22 22" fill="none" xmlns="http://www.w3.org/2000/svg">
<path d="M8.99414 11.9167C9.38038 12.443 9.87315 12.8785 10.439 13.1936C11.0049 13.5087 11.6307 13.6961 12.2738 13.743C12.917 13.79 13.5626 13.6954 14.1667 13.4657C14.7709 13.236 15.3195 12.8765 15.7754 12.4117L18.4735 9.66172C19.2926 8.79729 19.7459 7.63953 19.7357 6.43779C19.7254 5.23606 19.2525 4.0865 18.4187 3.23671C17.585 2.38693 16.4571 1.9049 15.2781 1.89446C14.099 1.88402 12.9631 2.34599 12.115 3.18088L10.568 4.74838" stroke="black" stroke-opacity="0.5" stroke-width="2" stroke-linecap="round" stroke-linejoin="round"/>
<path d="M12.5913 10.0834C12.2051 9.55709 11.7123 9.12163 11.1464 8.80652C10.5805 8.4914 9.95479 8.30402 9.31161 8.25707C8.66843 8.21012 8.02287 8.30471 7.41871 8.53441C6.81455 8.76411 6.26592 9.12356 5.81004 9.58838L3.11193 12.3384C2.29279 13.2028 1.83953 14.3606 1.84978 15.5623C1.86003 16.764 2.33295 17.9136 3.16671 18.7634C4.00046 19.6132 5.12833 20.0952 6.30739 20.1056C7.48645 20.1161 8.62237 19.6541 9.47048 18.8192L11.0084 17.2517" stroke="black" stroke-opacity="0.5" stroke-width="2" stroke-linecap="round" stroke-linejoin="round"/>
</svg>
