<svg width="23" height="22" viewBox="0 0 23 22" fill="none" xmlns="http://www.w3.org/2000/svg">
<path d="M15.25 7.33325C16.7087 7.33325 18.1076 7.91271 19.1391 8.94416C20.1705 9.97561 20.75 11.3746 20.75 12.8333V19.2499H17.0833V12.8333C17.0833 12.347 16.8902 11.8807 16.5464 11.5369C16.2025 11.1931 15.7362 10.9999 15.25 10.9999C14.7638 10.9999 14.2975 11.1931 13.9536 11.5369C13.6098 11.8807 13.4167 12.347 13.4167 12.8333V19.2499H9.75V12.8333C9.75 11.3746 10.3295 9.97561 11.3609 8.94416C12.3924 7.91271 13.7913 7.33325 15.25 7.33325V7.33325Z" stroke="black" stroke-opacity="0.5" stroke-width="2" stroke-linecap="round" stroke-linejoin="round"/>
<path d="M6.08464 8.25H2.41797V19.25H6.08464V8.25Z" stroke="black" stroke-opacity="0.5" stroke-width="2" stroke-linecap="round" stroke-linejoin="round"/>
<path d="M4.2513 5.49992C5.26382 5.49992 6.08464 4.67911 6.08464 3.66659C6.08464 2.65406 5.26382 1.83325 4.2513 1.83325C3.23878 1.83325 2.41797 2.65406 2.41797 3.66659C2.41797 4.67911 3.23878 5.49992 4.2513 5.49992Z" stroke="black" stroke-opacity="0.5" stroke-width="2" stroke-linecap="round" stroke-linejoin="round"/>
</svg>
