<svg width="28" height="28" viewBox="0 0 28 28" fill="none" xmlns="http://www.w3.org/2000/svg">
<path d="M14.0007 15.1666C14.645 15.1666 15.1673 14.6443 15.1673 13.9999C15.1673 13.3556 14.645 12.8333 14.0007 12.8333C13.3563 12.8333 12.834 13.3556 12.834 13.9999C12.834 14.6443 13.3563 15.1666 14.0007 15.1666Z" stroke="black" stroke-opacity="0.6" stroke-width="2" stroke-linecap="round" stroke-linejoin="round"/>
<path d="M22.1667 15.1666C22.811 15.1666 23.3333 14.6443 23.3333 13.9999C23.3333 13.3556 22.811 12.8333 22.1667 12.8333C21.5223 12.8333 21 13.3556 21 13.9999C21 14.6443 21.5223 15.1666 22.1667 15.1666Z" stroke="black" stroke-opacity="0.6" stroke-width="2" stroke-linecap="round" stroke-linejoin="round"/>
<path d="M5.83268 15.1666C6.47701 15.1666 6.99935 14.6443 6.99935 13.9999C6.99935 13.3556 6.47701 12.8333 5.83268 12.8333C5.18835 12.8333 4.66602 13.3556 4.66602 13.9999C4.66602 14.6443 5.18835 15.1666 5.83268 15.1666Z" stroke="black" stroke-opacity="0.6" stroke-width="2" stroke-linecap="round" stroke-linejoin="round"/>
</svg>
