<svg width="22" height="22" viewBox="0 0 22 22" fill="none" xmlns="http://www.w3.org/2000/svg">
<g clip-path="url(#clip0)">
<path d="M15.5833 0H6.41665C5.1535 0 4.125 1.0276 4.125 2.29165V21.5417C4.125 21.7268 4.23685 21.8946 4.40825 21.9643C4.57965 22.0367 4.77675 21.9963 4.90785 21.8652L11 15.7731L17.0922 21.8662C17.1802 21.9533 17.2975 22 17.4167 22C17.4753 22 17.5349 21.989 17.5917 21.9652C17.7632 21.8946 17.875 21.7268 17.875 21.5417V2.2917C17.875 1.0285 16.8465 0 15.5833 0ZM16.9583 20.4343L11.3245 14.8005C11.2347 14.7116 11.1173 14.6667 11 14.6667C10.8827 14.6667 10.7653 14.7116 10.6755 14.8014L5.04165 20.4353V2.29165C5.04165 1.53355 5.65855 0.916652 6.41665 0.916652H15.5833C16.3414 0.916652 16.9583 1.53355 16.9583 2.29165V20.4343H16.9583Z" fill="black" fill-opacity="0.6"/>
</g>
<defs>
<clipPath id="clip0">
<rect width="22" height="22" fill="white"/>
</clipPath>
</defs>
</svg>
