<svg width="23" height="22" viewBox="0 0 23 22" fill="none" xmlns="http://www.w3.org/2000/svg">
<g clip-path="url(#clip0)">
<path d="M21.6667 2.74994C20.7889 3.36913 19.8169 3.84271 18.7883 4.15244C18.2363 3.51766 17.5026 3.06774 16.6864 2.86354C15.8703 2.65934 15.0112 2.7107 14.2252 3.01069C13.4393 3.31068 12.7644 3.84481 12.2919 4.54085C11.8194 5.23689 11.5721 6.06125 11.5833 6.90244V7.81911C9.97241 7.86088 8.37617 7.5036 6.93676 6.7791C5.49735 6.0546 4.25946 4.98536 3.33333 3.66661C3.33333 3.66661 -0.333333 11.9166 7.91667 15.5833C6.02882 16.8647 3.77989 17.5073 1.5 17.4166C9.75 21.9999 19.8333 17.4166 19.8333 6.87494C19.8325 6.61961 19.8079 6.3649 19.76 6.11411C20.6956 5.19148 21.3558 4.02659 21.6667 2.74994V2.74994Z" stroke="black" stroke-opacity="0.5" stroke-width="2" stroke-linecap="round" stroke-linejoin="round"/>
</g>
<defs>
<clipPath id="clip0">
<rect width="22" height="22" fill="white" transform="translate(0.583984)"/>
</clipPath>
</defs>
</svg>
