<svg width="22" height="22" viewBox="0 0 22 22" fill="none" xmlns="http://www.w3.org/2000/svg">
<path d="M21.4268 0H15.7148C15.3984 0 15.1419 0.25647 15.1419 0.572917C15.1419 0.889364 15.3984 1.14583 15.7148 1.14583H20.0524L8.90852 12.3965C8.69479 12.6227 8.70061 12.9779 8.9215 13.197C9.14238 13.4161 9.49777 13.4186 9.72202 13.203L20.8538 1.96515V6.28485C20.8538 6.6013 21.1103 6.85777 21.4268 6.85777C21.7432 6.85777 21.9997 6.6013 21.9997 6.28485V0.572917C21.9997 0.25647 21.7432 0 21.4268 0Z" fill="black" fill-opacity="0.6"/>
<path d="M18.5703 12.2886C18.2539 12.2886 17.9974 12.545 17.9974 12.8615V19.1354C17.9963 20.0843 17.2276 20.853 16.2787 20.8541H2.86458C1.91569 20.853 1.14695 20.0843 1.14583 19.1354V5.72127C1.14695 4.77238 1.91569 4.00364 2.86458 4.00252C2.86458 4.00252 8.82202 4.00252 9.13847 4.00252C9.45492 4.00252 9.71139 3.74605 9.71139 3.42961C9.71139 3.11316 9.45492 2.85669 9.13847 2.85669H2.86458C1.28324 2.85848 0.00179036 4.13993 0 5.72127V19.1354C0.00179036 20.7167 1.28324 21.9982 2.86458 21.9999H16.2787C17.86 21.9982 19.1415 20.7167 19.1432 19.1354V12.8615C19.1432 12.545 18.8868 12.2886 18.5703 12.2886Z" fill="black" fill-opacity="0.6"/>
</svg>
