<svg width="20" height="22" viewBox="0 0 20 22" fill="none" xmlns="http://www.w3.org/2000/svg">
<path d="M14.6191 22H9.67773C8.53752 21.9546 8.53838 20.3262 9.67773 20.2812H14.6191C16.5146 20.2812 18.0566 18.7392 18.0566 16.8438V5.15625C18.0566 4.06493 17.5554 3.06243 16.6814 2.40582C16.302 2.12072 16.2255 1.58202 16.5105 1.20257C16.7956 0.823109 17.3343 0.746539 17.7138 1.03168C19.024 2.01596 19.7754 3.51931 19.7754 5.15625V16.8438C19.7754 19.6869 17.4623 22 14.6191 22V22ZM7.09961 21.1406V0.859375C7.09961 0.384742 6.71487 0 6.24023 0H5.38086C2.5377 0 0.224609 2.31309 0.224609 5.15625V16.8438C0.224609 19.6869 2.5377 22 5.38086 22H6.24023C6.71487 22 7.09961 21.6153 7.09961 21.1406ZM5.38086 20.2812C3.48542 20.2812 1.94336 18.7392 1.94336 16.8438V5.15625C1.94336 3.26081 3.48542 1.71875 5.38086 1.71875V20.2812ZM13.3657 9.96772C13.0007 9.96772 12.6411 9.83151 12.3637 9.57236L11.8262 9.07599L11.2886 9.57236C10.362 10.446 8.81247 9.77251 8.81836 8.49935V0.859375C8.81836 0.384742 9.2031 0 9.67773 0H13.9746C14.4492 0 14.834 0.384742 14.834 0.859375V8.49935C14.834 9.08536 14.4864 9.6143 13.9486 9.84693C13.7607 9.92814 13.5624 9.96772 13.3657 9.96772ZM11.8262 7.04688C12.0354 7.04688 12.2446 7.12289 12.4092 7.27491L13.1152 7.92687V1.71875H10.5371V7.92687L11.2432 7.27487C11.4078 7.12289 11.617 7.04688 11.8262 7.04688V7.04688Z" fill="black" fill-opacity="0.6"/>
</svg>
