<svg width="22" height="22" viewBox="0 0 22 22" fill="none" xmlns="http://www.w3.org/2000/svg">
<path d="M19.8 13.1998C18.5849 13.1998 17.6 12.2149 17.6 10.9998C17.6 9.78478 18.5849 8.7998 19.8 8.7998C21.015 8.7998 22 9.78478 22 10.9998C22 12.2149 21.015 13.1998 19.8 13.1998Z" fill="black" fill-opacity="0.6"/>
<path d="M10.9992 13.1998C9.78417 13.1998 8.79919 12.2149 8.79919 10.9998C8.79919 9.78478 9.78417 8.7998 10.9992 8.7998C12.2142 8.7998 13.1992 9.78478 13.1992 10.9998C13.1992 12.2149 12.2142 13.1998 10.9992 13.1998Z" fill="black" fill-opacity="0.6"/>
<path d="M2.20037 13.1998C0.985339 13.1998 0.000358582 12.2149 0.000358582 10.9998C0.000358582 9.78478 0.985339 8.7998 2.20037 8.7998C3.41541 8.7998 4.40039 9.78478 4.40039 10.9998C4.40039 12.2149 3.41541 13.1998 2.20037 13.1998Z" fill="black" fill-opacity="0.6"/>
</svg>
